<svg viewBox="0 0 12 12" width="168px" height="168px" xmlns="http://www.w3.org/2000/svg"><path fill-rule="evenodd" d="M 0,0 4,0 4,1 8,1 8,0 12,0 12,3 11,3 11,4 12,4 12,10 10,10 10,11 2,11 2,10 0,10 0,4 1,4 1,3 0,3z M 9,4 9,5 8,5 8,4z M 4,4 4,5 3,5 3,4z" fill="#BD6BBD"/><path fill-rule="evenodd" d="M 1,1 3,1 3,3 2,3 2,2 1,2z" fill="#ffffff"/><path fill-rule="evenodd" d="M 9,1 11,1 11,2 10,2 10,3 9,3z" fill="#ffffff"/><path fill-rule="evenodd" d="M 4,2 5,2 5,3 4,3z" fill="#ffffff"/><path fill-rule="evenodd" d="M 7,2 8,2 8,3 7,3z" fill="#ffffff"/><path fill-rule="evenodd" d="M 5,4 7,4 7,5 5,5z" fill="#ffffff"/><path fill-rule="evenodd" d="M 1,5 2,5 2,6 1,6z" fill="#ffffff"/><path fill-rule="evenodd" d="M 10,5 11,5 11,6 10,6z" fill="#ffffff"/><path fill-rule="evenodd" d="M 3,6 4,6 4,7 3,7z" fill="#ffffff"/><path fill-rule="evenodd" d="M 8,6 9,6 9,7 8,7z" fill="#ffffff"/><path fill-rule="evenodd" d="M 2,7 3,7 3,8 2,8z" fill="#ffffff"/><path fill-rule="evenodd" d="M 5,7 7,7 7,8 5,8z" fill="#ffffff"/><path fill-rule="evenodd" d="M 9,7 10,7 10,8 9,8z" fill="#ffffff"/><path fill-rule="evenodd" d="M 1,8 2,8 2,9 1,9z" fill="#ffffff"/><path fill-rule="evenodd" d="M 3,8 4,8 4,10 3,10z" fill="#ffffff"/><path fill-rule="evenodd" d="M 8,8 9,8 9,10 8,10z" fill="#ffffff"/><path fill-rule="evenodd" d="M 10,8 11,8 11,9 10,9z" fill="#ffffff"/><path fill-rule="evenodd" d="M 5,9 7,9 7,10 5,10z" fill="#ffffff"/></svg>